<?xml version="1.0" encoding="UTF-8" standalone="no"?>
<!-- Created with Inkscape (http://www.inkscape.org/) -->

<svg
   xmlns:dc="http://purl.org/dc/elements/1.1/"
   xmlns:cc="http://creativecommons.org/ns#"
   xmlns:rdf="http://www.w3.org/1999/02/22-rdf-syntax-ns#"
   xmlns:svg="http://www.w3.org/2000/svg"
   xmlns="http://www.w3.org/2000/svg"
   xmlns:sodipodi="http://sodipodi.sourceforge.net/DTD/sodipodi-0.dtd"
   xmlns:inkscape="http://www.inkscape.org/namespaces/inkscape"
   width="48"
   height="48"
   id="svg2"
   version="1.1"
   inkscape:version="0.48.5 r10040"
   sodipodi:docname="logo2.svg">
  <defs
     id="defs4" />
  <sodipodi:namedview
     id="base"
     pagecolor="#ffffff"
     bordercolor="#666666"
     borderopacity="1.0"
     inkscape:pageopacity="0.0"
     inkscape:pageshadow="2"
     inkscape:zoom="16.066828"
     inkscape:cx="25.159967"
     inkscape:cy="24.660148"
     inkscape:document-units="px"
     inkscape:current-layer="layer1"
     showgrid="false"
     inkscape:window-width="1680"
     inkscape:window-height="965"
     inkscape:window-x="0"
     inkscape:window-y="0"
     inkscape:window-maximized="1" />
  <metadata
     id="metadata7">
    <rdf:RDF>
      <cc:Work
         rdf:about="">
        <dc:format>image/svg+xml</dc:format>
        <dc:type
           rdf:resource="http://purl.org/dc/dcmitype/StillImage" />
        <dc:title></dc:title>
      </cc:Work>
    </rdf:RDF>
  </metadata>
  <g
     inkscape:label="Layer 1"
     inkscape:groupmode="layer"
     id="layer1"
     transform="translate(0,-1004.3622)">
    <path
       id="path3805"
       style="fill:#accd8c;stroke:#2e673c;stroke-width:0.69999999999999996;stroke-linecap:butt;stroke-linejoin:miter;stroke-opacity:1;stroke-miterlimit:4;stroke-dasharray:none;fill-opacity:1"
       d="m 29.492999,1026.0754 c -0.103331,-4.5511 -4.327128,-14.2825 -6.10971,-17.1128 -1.782582,2.8925 -5.695179,12.5617 -5.79851,17.1128 -0.103331,4.5512 3.310577,14.7164 5.79851,18.9494 2.550173,-3.4861 6.213041,-14.3982 6.10971,-18.9494 z"
       inkscape:connector-curvature="0"
       sodipodi:nodetypes="scscs" />
    <path
       style="fill:none;stroke:#2e673c;stroke-width:0.69999999;stroke-linecap:round;stroke-linejoin:miter;stroke-miterlimit:4;stroke-opacity:1;stroke-dasharray:none"
       d="m 23.340014,1009.1262 c 1.431521,16.6803 -1.493761,18.506 0.49792,40.1655"
       id="path3878"
       inkscape:connector-curvature="0"
       sodipodi:nodetypes="cc" />
    <path
       style="fill:#ffffff;stroke:#2e673c;stroke-width:0.69999999000000002;stroke-linecap:butt;stroke-linejoin:round;stroke-miterlimit:4;stroke-opacity:1;stroke-dasharray:none;fill-opacity:1"
       d="m 17.800651,1025.9724 c 0,0 3.674274,-1.9931 5.539363,-2.1784 1.865089,-0.1853 6.099524,2.1784 6.099524,2.1784 0,0 -4.267419,2.5365 -6.037284,2.3651 -1.769865,-0.1714 -5.601603,-2.3651 -5.601603,-2.3651 z"
       id="path3876"
       inkscape:connector-curvature="0"
       sodipodi:nodetypes="cscsc" />
    <g
       id="layer1-5"
       inkscape:label="Layer 1"
       transform="translate(16.082585,20.664631)">
      <g
         id="g3872"
         transform="translate(-17.364971,-21.659533)">
        <path
           sodipodi:type="arc"
           style="fill:#000000;fill-opacity:1;fill-rule:nonzero;stroke:none"
           id="path3755"
           sodipodi:cx="23.120491"
           sodipodi:cy="22.497646"
           sodipodi:rx="2.0122631"
           sodipodi:ry="2.0122631"
           d="m 25.132754,22.497646 c 0,1.111343 -0.900921,2.012263 -2.012263,2.012263 -1.111342,0 -2.012263,-0.90092 -2.012263,-2.012263 0,-1.111342 0.900921,-2.012263 2.012263,-2.012263 1.111342,0 2.012263,0.900921 2.012263,2.012263 z"
           transform="matrix(0.77409806,0,0,0.77409806,6.9238046,1009.4684)" />
        <path
           sodipodi:type="arc"
           style="fill:#ffffff;fill-opacity:1;stroke:none"
           id="path3763"
           sodipodi:cx="10.389848"
           sodipodi:cy="13.832595"
           sodipodi:rx="0.36959934"
           sodipodi:ry="0.32853276"
           d="m 10.759447,13.832595 c 0,0.181444 -0.165475,0.328533 -0.369599,0.328533 -0.204124,0 -0.3696,-0.147089 -0.3696,-0.328533 0,-0.181444 0.165476,-0.328533 0.3696,-0.328533 0.204124,0 0.369599,0.147089 0.369599,0.328533 z"
           transform="translate(15.00157,1012.082)" />
      </g>
    </g>
  </g>
</svg>
