<?xml version="1.0" encoding="UTF-8" standalone="no"?>
<!-- Created with Inkscape (http://www.inkscape.org/) -->

<svg
   xmlns:dc="http://purl.org/dc/elements/1.1/"
   xmlns:cc="http://creativecommons.org/ns#"
   xmlns:rdf="http://www.w3.org/1999/02/22-rdf-syntax-ns#"
   xmlns:svg="http://www.w3.org/2000/svg"
   xmlns="http://www.w3.org/2000/svg"
   xmlns:sodipodi="http://sodipodi.sourceforge.net/DTD/sodipodi-0.dtd"
   xmlns:inkscape="http://www.inkscape.org/namespaces/inkscape"
   width="48"
   height="48"
   id="svg2"
   version="1.1"
   inkscape:version="0.48.5 r10040"
   sodipodi:docname="New document 1">
  <defs
     id="defs4" />
  <sodipodi:namedview
     id="base"
     pagecolor="#ffffff"
     bordercolor="#666666"
     borderopacity="1.0"
     inkscape:pageopacity="0.0"
     inkscape:pageshadow="2"
     inkscape:zoom="12.175347"
     inkscape:cx="17.691162"
     inkscape:cy="22.170546"
     inkscape:document-units="px"
     inkscape:current-layer="layer1"
     showgrid="false"
     inkscape:window-width="1680"
     inkscape:window-height="965"
     inkscape:window-x="0"
     inkscape:window-y="0"
     inkscape:window-maximized="1" />
  <metadata
     id="metadata7">
    <rdf:RDF>
      <cc:Work
         rdf:about="">
        <dc:format>image/svg+xml</dc:format>
        <dc:type
           rdf:resource="http://purl.org/dc/dcmitype/StillImage" />
        <dc:title></dc:title>
      </cc:Work>
    </rdf:RDF>
  </metadata>
  <g
     inkscape:label="Layer 1"
     inkscape:groupmode="layer"
     id="layer1"
     transform="translate(0,-1004.3622)">
    <path
       style="fill:none;stroke:#00711e;stroke-width:1px;stroke-linecap:butt;stroke-linejoin:miter;stroke-opacity:1;fill-opacity:1"
       d="m 7.9840287,1033.4732 c 0,0 9.8302273,-10.7418 16.5087703,-11.7451 5.333841,-0.8013 13.14131,1.8891 15.523172,3.2032 0,0 -7.76601,5.7773 -13.305576,6.9813 -5.539566,1.2041 -11.416513,-0.082 -18.7263663,1.5606 z"
       id="path2985"
       inkscape:connector-curvature="0"
       sodipodi:nodetypes="csczc" />
    <path
       style="fill:#000000;fill-opacity:0;stroke:#00711e;stroke-width:0.5;stroke-linecap:butt;stroke-linejoin:miter;stroke-opacity:1;stroke-miterlimit:4;stroke-dasharray:none"
       d="m 8.2133185,1033.3073 c 0,0 15.7695715,-9.3632 31.7855425,-8.4597"
       id="path3761"
       inkscape:connector-curvature="0"
       sodipodi:nodetypes="cc" />
    <path
       sodipodi:type="arc"
       style="fill:#ffffff;fill-opacity:1;stroke:#00711e;stroke-width:1;stroke-linecap:round;stroke-linejoin:round;stroke-miterlimit:4;stroke-opacity:1;stroke-dasharray:none;stroke-dashoffset:0"
       id="path3757"
       sodipodi:cx="9.2810497"
       sodipodi:cy="10.300868"
       sodipodi:rx="4.3530588"
       sodipodi:ry="4.3530588"
       d="m 13.634109,10.300868 a 4.3530588,4.3530588 0 1 1 -8.7061181,0 4.3530588,4.3530588 0 1 1 8.7061181,0 z"
       transform="matrix(0.88999398,0,0,0.88999398,16.561253,1017.7161)" />
    <path
       sodipodi:type="arc"
       style="fill:#072d59;fill-opacity:1;fill-rule:nonzero;stroke:none;stroke-width:0.70200001999999995;stroke-linecap:round;stroke-linejoin:round;stroke-miterlimit:4;stroke-opacity:1;stroke-dasharray:none;stroke-dashoffset:0"
       id="path3755"
       sodipodi:cx="23.120491"
       sodipodi:cy="22.497646"
       sodipodi:rx="2.0122631"
       sodipodi:ry="2.0122631"
       d="m 25.132754,22.497646 a 2.0122631,2.0122631 0 1 1 -4.024526,0 2.0122631,2.0122631 0 1 1 4.024526,0 z"
       transform="matrix(0.77409806,0,0,0.77409806,6.9238046,1009.4684)" />
    <path
       sodipodi:type="arc"
       style="fill:#ffffff;fill-opacity:1;stroke:none"
       id="path3763"
       sodipodi:cx="10.389848"
       sodipodi:cy="13.832595"
       sodipodi:rx="0.36959934"
       sodipodi:ry="0.32853276"
       d="m 10.759447,13.832595 a 0.36959934,0.32853276 0 1 1 -0.739199,0 0.36959934,0.32853276 0 1 1 0.739199,0 z"
       transform="translate(15.00157,1012.082)" />
  </g>
</svg>
